<?xml version="1.0" encoding="utf-8"?>
<!-- Generator: Adobe Illustrator 23.0.1, SVG Export Plug-In . SVG Version: 6.00 Build 0)  -->
<svg version="1.1" id="Capa_1" xmlns="http://www.w3.org/2000/svg" xmlns:xlink="http://www.w3.org/1999/xlink" x="0px" y="0px"
	 viewBox="0 0 300 300" style="enable-background:new 0 0 300 300;" xml:space="preserve">
<style type="text/css">
	.st0{fill:#595959;}
</style>
<g>
	<g>
		<path class="st0" d="M75,0c-5.9,0-10.7,4.8-10.7,10.7v21.4h21.4V10.7C85.7,4.8,80.9,0,75,0z"/>
	</g>
</g>
<g>
	<g>
		<path class="st0" d="M225,0c-5.9,0-10.7,4.8-10.7,10.7v21.4h21.4V10.7C235.7,4.8,230.9,0,225,0z"/>
	</g>
</g>
<g>
	<g>
		<path class="st0" d="M267.9,32.1h-32.1V75c0,5.9-4.8,10.7-10.7,10.7s-10.7-4.8-10.7-10.7V32.1H85.7V75c0,5.9-4.8,10.7-10.7,10.7
			S64.3,80.9,64.3,75V32.1H32.1C14.4,32.1,0,46.5,0,64.3v203.6C0,285.6,14.4,300,32.1,300h235.7c17.8,0,32.1-14.4,32.1-32.1V64.3
			C300,46.5,285.6,32.1,267.9,32.1z M278.6,267.9c0,5.9-4.8,10.7-10.7,10.7H32.1c-5.9,0-10.7-4.8-10.7-10.7V128.6h257.1V267.9z"/>
	</g>
</g>
<g>
	<g>
		<path class="st0" d="M85.7,150H64.3c-5.9,0-10.7,4.8-10.7,10.7c0,5.9,4.8,10.7,10.7,10.7h21.4c5.9,0,10.7-4.8,10.7-10.7
			C96.4,154.8,91.6,150,85.7,150z"/>
	</g>
</g>
<g>
	<g>
		<path class="st0" d="M160.7,150h-21.4c-5.9,0-10.7,4.8-10.7,10.7c0,5.9,4.8,10.7,10.7,10.7h21.4c5.9,0,10.7-4.8,10.7-10.7
			C171.4,154.8,166.6,150,160.7,150z"/>
	</g>
</g>
<g>
	<g>
		<path class="st0" d="M235.7,150h-21.4c-5.9,0-10.7,4.8-10.7,10.7c0,5.9,4.8,10.7,10.7,10.7h21.4c5.9,0,10.7-4.8,10.7-10.7
			C246.4,154.8,241.6,150,235.7,150z"/>
	</g>
</g>
<g>
	<g>
		<path class="st0" d="M85.7,192.9H64.3c-5.9,0-10.7,4.8-10.7,10.7c0,5.9,4.8,10.7,10.7,10.7h21.4c5.9,0,10.7-4.8,10.7-10.7
			C96.4,197.7,91.6,192.9,85.7,192.9z"/>
	</g>
</g>
<g>
	<g>
		<path class="st0" d="M160.7,192.9h-21.4c-5.9,0-10.7,4.8-10.7,10.7c0,5.9,4.8,10.7,10.7,10.7h21.4c5.9,0,10.7-4.8,10.7-10.7
			C171.4,197.7,166.6,192.9,160.7,192.9z"/>
	</g>
</g>
<g>
	<g>
		<path class="st0" d="M235.7,192.9h-21.4c-5.9,0-10.7,4.8-10.7,10.7c0,5.9,4.8,10.7,10.7,10.7h21.4c5.9,0,10.7-4.8,10.7-10.7
			C246.4,197.7,241.6,192.9,235.7,192.9z"/>
	</g>
</g>
<g>
	<g>
		<path class="st0" d="M85.7,235.7H64.3c-5.9,0-10.7,4.8-10.7,10.7s4.8,10.7,10.7,10.7h21.4c5.9,0,10.7-4.8,10.7-10.7
			C96.4,240.5,91.6,235.7,85.7,235.7z"/>
	</g>
</g>
<g>
	<g>
		<path class="st0" d="M160.7,235.7h-21.4c-5.9,0-10.7,4.8-10.7,10.7s4.8,10.7,10.7,10.7h21.4c5.9,0,10.7-4.8,10.7-10.7
			S166.6,235.7,160.7,235.7z"/>
	</g>
</g>
<g>
	<g>
		<path class="st0" d="M235.7,235.7h-21.4c-5.9,0-10.7,4.8-10.7,10.7s4.8,10.7,10.7,10.7h21.4c5.9,0,10.7-4.8,10.7-10.7
			S241.6,235.7,235.7,235.7z"/>
	</g>
</g>
</svg>
