<?xml version="1.0" encoding="utf-8"?>
<!-- Generator: Adobe Illustrator 25.0.0, SVG Export Plug-In . SVG Version: 6.00 Build 0)  -->
<svg version="1.1" id="Layer_1" xmlns="http://www.w3.org/2000/svg" xmlns:xlink="http://www.w3.org/1999/xlink" x="0px" y="0px"
	 viewBox="0 0 128 109" style="enable-background:new 0 0 128 109;" xml:space="preserve">
<style type="text/css">
	.st0{fill:#FFFFFF;}
	.st1{font-family:'Poppins-Bold';}
	.st2{font-size:6.453px;}
	.st3{letter-spacing:1;}
	.st4{font-family:'Poppins-Medium';}
</style>
<g>
	<path class="st0" d="M54.69,23.23c-0.3,0.34-0.58,0.68-0.83,1.04c-0.1,0.14-0.29,0.18-0.43,0.09c-0.98-0.62-2.41-1.2-3.58-1.22
		c-3.17-0.05-5.72,2.29-5.72,5.06v20.65c0,0.31-0.29,0.56-0.64,0.56h-3.53c-0.35,0-0.64-0.25-0.64-0.56V30.18
		c0-4.65,4.67-8.44,10.42-8.44c1.75,0,3.4,0.38,4.84,0.99C54.78,22.82,54.83,23.07,54.69,23.23z"/>
	<path class="st0" d="M74.62,30.92v8.92c0,5.94-4.66,9.73-10.42,9.73c-5.75,0-10.42-3.79-10.42-9.73v-8.92
		c0-5.94,4.67-9.73,10.42-9.73C69.96,21.19,74.62,24.98,74.62,30.92z M69.81,29.35c0-4.27-1.88-6.74-5.61-6.74
		c-3.73,0-5.61,2.47-5.61,6.74v12.07c0,4.12,2.01,6.74,5.61,6.74c3.6,0,5.61-2.62,5.61-6.74V29.35z"/>
	<path class="st0" d="M111.72,49.57c-5.75,0-10.42-3.79-10.42-9.73v-8.92c0-5.94,4.67-9.73,10.42-9.73c2.06,0,3.98,0.49,5.59,1.33
		V11.96c0-0.24,0.1-0.49,0.36-0.55c1.28-0.26,2.49-0.76,3.61-1.53c0.35-0.22,0.83,0.12,0.83,0.55l-0.07,29.99
		c0,1.86-0.5,3.72-1.58,5.24C119.08,47.62,116.5,49.57,111.72,49.57z M117.31,27.19c-0.22-2.57-2.63-4.59-5.59-4.59
		c-3.73,0-5.61,2.47-5.61,6.74v12.07c0,4.12,2.01,6.74,5.61,6.74c2.96,0,5.37-2.02,5.59-4.59V27.19z"/>
	<path class="st0" d="M18.39,82.43c-1.02-1.35-1.57-3-1.57-4.7V55.34c0-0.65-0.29-1.73-2.21-1.73c-0.88,0-1.78,0.13-2.68,0.4
		c-0.9,0.26-1.72,0.62-2.45,1.08c-0.74,0.46-1.36,1.03-1.83,1.67C7.15,57.44,6.9,58.2,6.9,59c0,0.56,0.08,1,0.24,1.36
		c0.16,0.35,0.35,0.62,0.57,0.82c0.23,0.2,0.47,0.32,0.72,0.38c0.21,0.05,0.36,0.07,0.48,0.07c0.46,0,0.85-0.08,1.16-0.25
		c0.26-0.14,0.5-0.29,0.72-0.45l0.56-0.41c0.09-0.07,0.2-0.1,0.32-0.1c0.12,0,0.26,0.03,0.4,0.09c0.14,0.06,0.28,0.16,0.41,0.29
		c0.13,0.14,0.25,0.33,0.35,0.57c0.1,0.24,0.15,0.54,0.15,0.91c0,0.53-0.1,0.98-0.3,1.36c-0.2,0.38-0.47,0.71-0.79,0.96
		c-0.32,0.26-0.7,0.45-1.12,0.58c-0.43,0.13-0.87,0.2-1.29,0.2c-0.66,0-1.27-0.11-1.79-0.34c-0.52-0.22-0.97-0.54-1.34-0.93
		C5.98,63.7,5.7,63.23,5.51,62.7c-0.19-0.54-0.29-1.13-0.29-1.74c0-1.19,0.22-2.24,0.66-3.14c0.44-0.9,1.07-1.69,1.87-2.34
		c0.82-0.67,1.82-1.23,2.97-1.67c1.17-0.45,2.49-0.82,3.92-1.08c1.44-0.27,3-0.46,4.64-0.58c1.65-0.11,2.44-0.17,4.22-0.17
		c4.3,0,7.5,0.67,9.49,1.99c1.96,1.3,2.91,3.14,2.91,5.63c0,0.61-0.07,1.18-0.2,1.69c-0.14,0.52-0.31,0.99-0.52,1.4
		c-0.21,0.42-0.45,0.79-0.72,1.11c-0.27,0.33-0.55,0.62-0.83,0.86c-0.68,0.59-1.45,1.05-2.29,1.38L28.88,67l2.15,0.23l0.42,0.05
		c1.34,0.16,2.56,0.57,3.63,1.21c0.44,0.27,0.88,0.61,1.32,1.02c0.42,0.4,0.81,0.9,1.14,1.47c0.34,0.58,0.61,1.26,0.82,2.03
		c0.21,0.77,0.31,1.67,0.31,2.68c0,1.52-0.28,2.91-0.83,4.12c-0.55,1.2-1.37,2.24-2.44,3.08c-1.09,0.85-2.47,1.51-4.11,1.96
		c-1.66,0.46-3.62,0.69-5.82,0.69c-0.38,0-0.74,0-1.09-0.01C22.01,85.49,19.81,84.32,18.39,82.43L18.39,82.43z M25.46,52.9
		c-0.35,0-0.71,0.04-1.04,0.13c-0.37,0.09-0.69,0.26-0.96,0.48c-0.28,0.23-0.5,0.53-0.66,0.89c-0.15,0.35-0.23,0.79-0.23,1.3V81.6
		c0,0.38,0.04,0.75,0.11,1.1c0.09,0.39,0.26,0.74,0.52,1.03c0.26,0.28,0.6,0.51,1.03,0.67c0.42,0.16,0.93,0.24,1.57,0.24
		c0.93,0,1.8-0.27,2.57-0.8c0.75-0.51,1.4-1.18,1.93-1.98c0.53-0.79,0.94-1.69,1.23-2.66c0.29-0.98,0.43-1.96,0.43-2.93
		c0-1.43-0.2-2.72-0.59-3.83c-0.39-1.11-0.95-2.07-1.66-2.85c-0.71-0.78-1.56-1.39-2.53-1.82c-0.78-0.34-1.61-0.57-2.49-0.68
		l0.11-0.28c0.61-0.01,1.2-0.11,1.76-0.31c0.68-0.24,1.29-0.66,1.81-1.26c0.51-0.58,0.91-1.37,1.2-2.33
		c0.29-0.95,0.43-2.14,0.43-3.55c0-0.97-0.12-1.86-0.36-2.65c-0.24-0.79-0.57-1.47-0.97-2.03c-0.41-0.56-0.9-1.01-1.45-1.31
		C26.65,53.06,26.06,52.9,25.46,52.9z"/>
	<path class="st0" d="M17.66,46.54c-0.96-1.28-1.48-2.84-1.48-4.44V20.94c0-0.61-0.27-1.63-2.09-1.63c-0.83,0-1.68,0.13-2.53,0.37
		c-0.85,0.25-1.63,0.59-2.31,1.02c-0.7,0.44-1.28,0.97-1.73,1.58c-0.47,0.64-0.71,1.35-0.71,2.11c0,0.53,0.07,0.95,0.22,1.28
		c0.15,0.33,0.33,0.59,0.54,0.77c0.21,0.19,0.44,0.31,0.68,0.36c0.2,0.04,0.34,0.06,0.45,0.06c0.43,0,0.8-0.08,1.1-0.24
		c0.25-0.13,0.48-0.27,0.68-0.42L11,25.82c0.09-0.06,0.19-0.1,0.31-0.1c0.11,0,0.24,0.03,0.38,0.09c0.14,0.06,0.27,0.15,0.39,0.27
		c0.13,0.13,0.24,0.31,0.33,0.54c0.09,0.22,0.14,0.51,0.14,0.86c0,0.5-0.09,0.93-0.28,1.28c-0.19,0.36-0.45,0.67-0.75,0.91
		c-0.31,0.24-0.66,0.43-1.06,0.55c-0.41,0.12-0.82,0.19-1.22,0.19c-0.63,0-1.2-0.11-1.69-0.32c-0.5-0.21-0.92-0.51-1.26-0.88
		c-0.35-0.37-0.61-0.81-0.79-1.32c-0.18-0.51-0.28-1.06-0.28-1.64c0-1.12,0.21-2.12,0.62-2.97c0.42-0.85,1.01-1.6,1.77-2.21
		c0.77-0.63,1.72-1.16,2.81-1.58c1.11-0.43,2.35-0.77,3.7-1.02c1.36-0.26,2.84-0.44,4.39-0.54c1.56-0.11,2.31-0.16,3.99-0.16
		c4.07,0,7.08,0.63,8.96,1.88c1.85,1.23,2.75,2.97,2.75,5.32c0,0.58-0.06,1.11-0.19,1.59c-0.13,0.49-0.3,0.93-0.5,1.33
		c-0.2,0.39-0.43,0.75-0.68,1.05c-0.26,0.31-0.52,0.58-0.79,0.81c-0.64,0.56-1.37,1-2.16,1.31l-2.31,0.92l2.03,0.22L30,32.22
		c1.27,0.15,2.42,0.54,3.43,1.15c0.41,0.25,0.83,0.58,1.24,0.97c0.4,0.38,0.76,0.85,1.08,1.39c0.32,0.55,0.58,1.2,0.78,1.92
		c0.2,0.73,0.3,1.58,0.3,2.53c0,1.44-0.26,2.75-0.78,3.9c-0.52,1.14-1.29,2.12-2.31,2.91c-1.03,0.8-2.33,1.43-3.88,1.86
		c-1.57,0.43-3.42,0.65-5.5,0.65c-0.36,0-0.7,0-1.03-0.01C21.08,49.43,19.01,48.32,17.66,46.54L17.66,46.54z M24.35,18.64
		c-0.34,0-0.67,0.04-0.98,0.12c-0.35,0.09-0.65,0.24-0.91,0.46c-0.26,0.22-0.47,0.5-0.62,0.85c-0.15,0.34-0.22,0.75-0.22,1.23v24.47
		c0,0.36,0.04,0.71,0.11,1.04c0.08,0.37,0.25,0.7,0.49,0.97c0.24,0.27,0.57,0.48,0.97,0.64c0.39,0.15,0.88,0.22,1.49,0.22
		c0.88,0,1.7-0.26,2.43-0.76c0.71-0.48,1.32-1.11,1.82-1.87c0.5-0.75,0.89-1.59,1.16-2.52c0.27-0.92,0.41-1.86,0.41-2.77
		c0-1.36-0.19-2.57-0.55-3.61c-0.37-1.05-0.9-1.96-1.57-2.69c-0.67-0.73-1.48-1.31-2.39-1.72c-0.73-0.32-1.52-0.54-2.36-0.64
		l0.1-0.26c0.57-0.01,1.13-0.1,1.66-0.29c0.65-0.23,1.22-0.62,1.71-1.19c0.48-0.55,0.86-1.29,1.14-2.2
		c0.27-0.89,0.41-2.02,0.41-3.36c0-0.92-0.12-1.76-0.34-2.51c-0.23-0.75-0.54-1.39-0.92-1.91c-0.39-0.53-0.85-0.95-1.37-1.24
		C25.47,18.79,24.91,18.64,24.35,18.64z"/>
	<path class="st0" d="M54.79,84.06c3.16,0,5.93-2.25,5.93-4.92c0-0.21-0.01-1.85-0.01-1.89h0h0l0-0.01h0c0-1.37,1.14-2.49,2.54-2.49
		c1.4,0,2.55,1.11,2.54,2.49h0c0,0,0,0,0,0.01v0c0,4.65-5.19,8.31-10.99,8.31c-6.09,0-11.03-4.01-11.03-10.3v-9.19
		c0-7.28,4.94-10.55,11.03-10.55c6.09,0,10.73,2.6,10.73,7.57c0,3.62-2.36,5.45-3.93,6.33c-1.77,0.98-4.47,1.7-6.45,2.6
		c-4.1,1.87-6.29,3.77-6.29,6.41C48.85,82.23,51.5,84.06,54.79,84.06z M54.79,57.03c-3.52,0-5.94,2.99-5.94,7.1v9.19
		c1.65-0.95,3.92-1.92,5.77-3.02c3.01-1.79,6.1-3.94,6.1-7.2C60.72,59.29,58.67,57.03,54.79,57.03z"/>
	<path class="st0" d="M81.97,57.03c-3.16,0-5.93,2.25-5.93,4.92c0,0.21,0.01,1.85,0.01,1.89h0h0l0,0.01h0
		c0,1.37-1.14,2.49-2.54,2.49c-1.4,0-2.55-1.11-2.54-2.49h0c0,0,0,0,0-0.01v0c0-4.65,5.19-8.31,10.99-8.31
		c6.09,0,11.03,4.01,11.03,10.3v9.19c0,7.28-4.94,10.55-11.03,10.55c-6.09,0-10.73-2.6-10.73-7.57c0-3.62,2.36-5.45,3.93-6.33
		c1.77-0.98,4.47-1.7,6.45-2.6c4.1-1.87,6.29-3.77,6.29-6.41C87.91,58.85,85.25,57.03,81.97,57.03z M81.97,84.06
		c3.52,0,5.94-2.99,5.94-7.1v-9.19c-1.65,0.95-3.92,1.92-5.77,3.02c-3.01,1.79-6.1,3.94-6.1,7.2C76.03,81.8,78.09,84.06,81.97,84.06
		z"/>
	<path class="st0" d="M87.66,22.45c-2.98,0-5.6,2.13-5.6,4.65c0,0.2,0.01,1.75,0.01,1.78h0h0l0,0.01h0c0,1.3-1.08,2.35-2.4,2.35
		c-1.32,0-2.41-1.05-2.4-2.35h0c0,0,0,0,0-0.01v0c0-4.39,4.9-7.85,10.39-7.85c5.75,0,10.42,3.79,10.42,9.73v8.68
		c0,6.88-4.67,9.97-10.42,9.97c-5.75,0-10.14-2.45-10.14-7.15c0-3.42,2.23-5.15,3.71-5.98c1.67-0.93,4.22-1.6,6.09-2.46
		c3.88-1.77,5.94-3.57,5.94-6.06C93.27,24.17,90.76,22.45,87.66,22.45z M87.66,48c3.32,0,5.61-2.82,5.61-6.71V32.6
		c-1.56,0.89-3.7,1.82-5.45,2.85c-2.85,1.69-5.77,3.72-5.77,6.81C82.05,45.86,83.99,48,87.66,48z"/>
	<path class="st0" d="M121.67,65.18l0,19.79c0,0.33-0.3,0.59-0.68,0.59h-3.73c-0.37,0-0.68-0.27-0.68-0.59l0-21.88
		c0-2.89-2.64-5.32-5.93-5.33l-0.91,0c-3.35-0.06-6.06,2.4-6.06,5.33l0,21.88c0,0.33-0.3,0.59-0.68,0.59h-3.73
		c-0.37,0-0.68-0.27-0.68-0.59l0-19.79c0-4.92,4.94-8.9,11.03-8.9h1.02C116.74,56.28,121.67,60.26,121.67,65.18z"/>
	<circle class="st0" cx="64.2" cy="12.74" r="3.24"/>
	<path class="st0" d="M65.66,5.52c0-0.8-0.65-1.46-1.46-1.46c-0.8,0-1.46,0.65-1.46,1.46s0.65,1.46,1.46,1.46
		C65.01,6.98,65.66,6.33,65.66,5.52z"/>
	<path class="st0" d="M60.02,8.98c-0.31-0.74-1.16-1.1-1.9-0.79c-0.74,0.31-1.1,1.16-0.79,1.9c0.31,0.74,1.16,1.1,1.9,0.79
		C59.98,10.58,60.33,9.72,60.02,8.98z"/>
	<path class="st0" d="M57.72,4.66c-0.21-0.5-0.78-0.74-1.28-0.53c-0.5,0.21-0.74,0.78-0.53,1.28c0.21,0.5,0.78,0.74,1.28,0.53
		C57.69,5.74,57.92,5.16,57.72,4.66z"/>
	<path class="st0" d="M51.42,16.01c-0.74-0.31-1.6,0.05-1.9,0.79s0.05,1.6,0.79,1.9c0.74,0.31,1.6-0.05,1.9-0.79
		C52.51,17.17,52.16,16.32,51.42,16.01z"/>
	<path class="st0" d="M46.73,14.59c-0.5-0.21-1.07,0.03-1.28,0.53c-0.21,0.5,0.03,1.07,0.53,1.28c0.5,0.21,1.07-0.03,1.28-0.53
		C47.47,15.37,47.23,14.79,46.73,14.59z"/>
	<path class="st0" d="M78.11,18.7c0.74-0.31,1.1-1.16,0.79-1.9c-0.31-0.74-1.16-1.1-1.9-0.79c-0.74,0.31-1.1,1.16-0.79,1.9
		C76.51,18.66,77.36,19.01,78.11,18.7z"/>
	<path class="st0" d="M82.42,16.39c0.5-0.21,0.74-0.78,0.53-1.28c-0.21-0.5-0.78-0.74-1.28-0.53c-0.5,0.21-0.74,0.78-0.53,1.28
		C81.35,16.36,81.92,16.6,82.42,16.39z"/>
	<path class="st0" d="M71.08,10.09c0.31-0.74-0.05-1.6-0.79-1.9c-0.74-0.31-1.6,0.05-1.9,0.79c-0.31,0.74,0.05,1.6,0.79,1.9
		C69.92,11.19,70.77,10.84,71.08,10.09z"/>
	<path class="st0" d="M72.5,5.41c0.21-0.5-0.03-1.07-0.53-1.28c-0.5-0.21-1.07,0.03-1.28,0.53c-0.21,0.5,0.03,1.07,0.53,1.28
		C71.72,6.15,72.29,5.91,72.5,5.41z"/>
	<g>
		<g>
			<circle class="st0" cx="57.04" cy="15.71" r="3.24"/>
			<circle class="st0" cx="51.93" cy="10.61" r="1.46"/>
		</g>
	</g>
	<g>
		<g>
			<circle class="st0" cx="71.37" cy="15.71" r="3.24"/>
			<circle class="st0" cx="76.48" cy="10.61" r="1.46"/>
		</g>
	</g>
	<g>
		<text transform="matrix(1 0 0 1 50.0327 94.75)"><tspan x="0" y="0" class="st0 st1 st2 st3">KANNUR</tspan><tspan x="-37.09" y="7.74" class="st0 st4 st2 st3">By KK Hotels &amp; Resorts</tspan></text>
	</g>
</g>
</svg>
