<?xml version="1.0" encoding="utf-8"?>
<!-- Generator: Adobe Illustrator 25.0.0, SVG Export Plug-In . SVG Version: 6.00 Build 0)  -->
<svg version="1.1" id="Layer_1" xmlns="http://www.w3.org/2000/svg" xmlns:xlink="http://www.w3.org/1999/xlink" x="0px" y="0px"
	 viewBox="0 0 128 109" style="enable-background:new 0 0 128 109;" xml:space="preserve">
<style type="text/css">
	.st0{fill:#FFFFFF;}
</style>
<g>
	<g>
		<g>
			<path class="st0" d="M54.29,21.93c-0.33,0.36-0.63,0.74-0.9,1.13c-0.11,0.15-0.31,0.2-0.47,0.1c-1.07-0.67-2.61-1.3-3.88-1.32
				c-3.43-0.06-6.2,2.48-6.2,5.48v22.35c0,0.33-0.31,0.61-0.69,0.61h-3.82c-0.38,0-0.69-0.27-0.69-0.61V29.45
				c0-5.03,5.05-9.13,11.28-9.13c1.89,0,3.68,0.41,5.24,1.08C54.38,21.49,54.44,21.76,54.29,21.93z"/>
		</g>
	</g>
	<g>
		<g>
			<path class="st0" d="M75.86,30.25v9.66c0,6.43-5.05,10.53-11.28,10.53c-6.23,0-11.28-4.1-11.28-10.53v-9.66
				c0-6.43,5.05-10.53,11.28-10.53C70.81,19.72,75.86,23.82,75.86,30.25z M70.66,28.55c0-4.62-2.04-7.29-6.07-7.29
				c-4.04,0-6.07,2.67-6.07,7.29v13.06c0,4.46,2.18,7.29,6.07,7.29c3.9,0,6.07-2.84,6.07-7.29V28.55z"/>
		</g>
	</g>
	<g>
		<g>
			<path class="st0" d="M116.01,50.44c-6.23,0-11.28-4.1-11.28-10.53v-9.66c0-6.43,5.05-10.53,11.28-10.53
				c2.23,0,4.3,0.53,6.05,1.44V9.73c0-0.26,0.11-0.53,0.39-0.6c1.39-0.29,2.7-0.82,3.91-1.66c0.38-0.23,0.9,0.13,0.9,0.6
				l-0.07,32.46c0,2.02-0.54,4.03-1.71,5.67C123.98,48.33,121.19,50.44,116.01,50.44z M122.07,26.22c-0.24-2.78-2.85-4.96-6.05-4.96
				c-4.04,0-6.07,2.67-6.07,7.29v13.06c0,4.46,2.18,7.29,6.07,7.29c3.2,0,5.82-2.19,6.05-4.96V26.22z"/>
		</g>
	</g>
	<g>
		<g>
			<path class="st0" d="M14.99,86.01c-1.1-1.47-1.7-3.25-1.7-5.08V56.69c0-0.7-0.31-1.87-2.39-1.87c-0.95,0-1.93,0.14-2.9,0.43
				c-0.97,0.28-1.86,0.68-2.65,1.17c-0.8,0.5-1.47,1.11-1.98,1.81c-0.54,0.74-0.82,1.55-0.82,2.42c0,0.61,0.08,1.09,0.26,1.47
				c0.17,0.38,0.37,0.68,0.61,0.88c0.24,0.21,0.51,0.35,0.78,0.41c0.23,0.05,0.39,0.07,0.52,0.07c0.5,0,0.92-0.09,1.25-0.27
				c0.29-0.15,0.55-0.31,0.78-0.48l0.61-0.45c0.1-0.07,0.21-0.11,0.35-0.11c0.13,0,0.28,0.03,0.44,0.1c0.16,0.06,0.3,0.17,0.44,0.31
				c0.14,0.15,0.27,0.36,0.38,0.62c0.1,0.26,0.16,0.59,0.16,0.98c0,0.57-0.11,1.06-0.32,1.47c-0.22,0.41-0.51,0.76-0.86,1.04
				c-0.35,0.28-0.76,0.49-1.21,0.63c-0.47,0.14-0.94,0.21-1.4,0.21c-0.72,0-1.37-0.12-1.94-0.37c-0.57-0.24-1.05-0.58-1.45-1
				c-0.4-0.43-0.7-0.93-0.91-1.51c-0.21-0.59-0.32-1.22-0.32-1.88c0-1.28,0.24-2.43,0.71-3.4c0.48-0.98,1.16-1.83,2.03-2.54
				c0.89-0.72,1.97-1.33,3.21-1.81c1.27-0.49,2.69-0.88,4.24-1.17c1.56-0.29,3.25-0.5,5.02-0.62c1.79-0.12,2.65-0.18,4.57-0.18
				c4.66,0,8.11,0.72,10.27,2.15c2.12,1.4,3.15,3.4,3.15,6.09c0,0.66-0.07,1.27-0.22,1.82c-0.15,0.56-0.34,1.07-0.57,1.52
				c-0.23,0.45-0.49,0.86-0.78,1.2c-0.3,0.36-0.6,0.67-0.9,0.93c-0.73,0.64-1.56,1.14-2.48,1.5l-2.65,1.05l2.32,0.25l0.45,0.05
				c1.45,0.17,2.77,0.61,3.93,1.31c0.47,0.29,0.95,0.66,1.42,1.11c0.46,0.43,0.87,0.97,1.23,1.59c0.36,0.63,0.66,1.37,0.89,2.2
				c0.23,0.84,0.34,1.81,0.34,2.9c0,1.65-0.3,3.15-0.89,4.47c-0.59,1.3-1.48,2.43-2.64,3.33c-1.18,0.92-2.67,1.63-4.45,2.13
				c-1.8,0.5-3.91,0.75-6.3,0.75c-0.41,0-0.8,0-1.18-0.01C18.91,89.32,16.53,88.05,14.99,86.01L14.99,86.01z M22.65,54.05
				c-0.38,0-0.76,0.05-1.13,0.14c-0.4,0.1-0.74,0.28-1.04,0.52c-0.3,0.25-0.54,0.57-0.71,0.97c-0.17,0.38-0.25,0.86-0.25,1.4v28.03
				c0,0.42,0.04,0.82,0.12,1.19c0.09,0.42,0.28,0.8,0.56,1.11c0.28,0.31,0.65,0.55,1.11,0.73c0.45,0.17,1.01,0.26,1.7,0.26
				c1.01,0,1.95-0.29,2.79-0.87c0.81-0.56,1.51-1.28,2.09-2.14c0.57-0.85,1.02-1.82,1.33-2.88c0.31-1.06,0.47-2.13,0.47-3.17
				c0-1.55-0.21-2.95-0.64-4.14c-0.42-1.21-1.03-2.24-1.8-3.08c-0.77-0.84-1.69-1.5-2.74-1.96c-0.84-0.37-1.75-0.62-2.7-0.73
				l0.12-0.3c0.66-0.01,1.3-0.12,1.9-0.33c0.74-0.26,1.4-0.72,1.96-1.36c0.55-0.63,0.99-1.48,1.3-2.52
				c0.31-1.02,0.47-2.32,0.47-3.85c0-1.05-0.13-2.02-0.39-2.87c-0.26-0.86-0.62-1.59-1.05-2.19c-0.45-0.61-0.98-1.09-1.57-1.42
				C23.93,54.22,23.3,54.05,22.65,54.05z"/>
		</g>
	</g>
	<g>
		<g>
			<path class="st0" d="M14.21,47.16c-1.04-1.39-1.6-3.07-1.6-4.8v-22.9c0-0.66-0.29-1.77-2.26-1.77c-0.9,0-1.82,0.14-2.74,0.41
				c-0.92,0.27-1.76,0.64-2.5,1.11c-0.76,0.47-1.39,1.05-1.87,1.71c-0.51,0.7-0.77,1.47-0.77,2.28c0,0.57,0.08,1.03,0.24,1.39
				c0.16,0.36,0.35,0.64,0.58,0.83c0.23,0.2,0.48,0.33,0.74,0.39c0.21,0.05,0.37,0.07,0.49,0.07c0.47,0,0.87-0.09,1.19-0.26
				c0.27-0.14,0.52-0.3,0.74-0.46L7,24.74c0.1-0.07,0.2-0.1,0.33-0.1c0.12,0,0.26,0.03,0.41,0.09c0.15,0.06,0.29,0.16,0.42,0.3
				c0.14,0.14,0.26,0.34,0.36,0.59c0.1,0.24,0.15,0.56,0.15,0.93c0,0.54-0.1,1.01-0.31,1.39c-0.21,0.39-0.48,0.72-0.81,0.98
				c-0.33,0.26-0.72,0.46-1.15,0.59c-0.44,0.13-0.89,0.2-1.32,0.2c-0.68,0-1.29-0.12-1.83-0.35c-0.54-0.23-1-0.55-1.37-0.95
				c-0.38-0.4-0.66-0.88-0.86-1.42c-0.2-0.55-0.3-1.15-0.3-1.78c0-1.21,0.23-2.29,0.68-3.21c0.45-0.92,1.1-1.73,1.92-2.4
				c0.84-0.68,1.86-1.26,3.04-1.71c1.2-0.46,2.55-0.84,4.01-1.11c1.47-0.28,3.07-0.47,4.75-0.59c1.69-0.12,2.5-0.17,4.32-0.17
				c4.4,0,7.67,0.68,9.7,2.03c2,1.33,2.98,3.21,2.98,5.76c0,0.62-0.07,1.2-0.21,1.72c-0.14,0.53-0.32,1.01-0.54,1.44
				c-0.22,0.43-0.46,0.81-0.74,1.14c-0.28,0.34-0.57,0.63-0.85,0.87c-0.69,0.6-1.48,1.08-2.34,1.41l-2.5,0.99l2.2,0.23l0.43,0.05
				c1.37,0.16,2.62,0.58,3.71,1.24c0.45,0.27,0.9,0.63,1.35,1.05c0.43,0.41,0.82,0.92,1.16,1.51c0.34,0.59,0.63,1.29,0.84,2.08
				c0.21,0.79,0.32,1.71,0.32,2.74c0,1.56-0.28,2.98-0.84,4.22c-0.56,1.23-1.4,2.29-2.5,3.15c-1.11,0.87-2.53,1.54-4.2,2.01
				c-1.7,0.47-3.7,0.71-5.95,0.71c-0.38,0-0.76,0-1.12-0.01C17.91,50.29,15.66,49.09,14.21,47.16L14.21,47.16z M21.44,16.96
				c-0.36,0-0.72,0.04-1.07,0.13c-0.37,0.1-0.7,0.26-0.98,0.49c-0.28,0.23-0.51,0.54-0.67,0.92c-0.16,0.36-0.24,0.81-0.24,1.33
				v26.48c0,0.39,0.04,0.77,0.12,1.12c0.09,0.4,0.27,0.75,0.53,1.05c0.26,0.29,0.62,0.52,1.05,0.69c0.42,0.16,0.95,0.24,1.61,0.24
				c0.95,0,1.84-0.28,2.63-0.82c0.77-0.52,1.43-1.21,1.98-2.02c0.54-0.81,0.96-1.72,1.25-2.73c0.29-1,0.44-2.01,0.44-3
				c0-1.47-0.2-2.78-0.6-3.91c-0.4-1.14-0.97-2.12-1.7-2.91c-0.73-0.79-1.6-1.42-2.59-1.86c-0.79-0.35-1.65-0.58-2.55-0.69
				l0.11-0.28c0.62-0.01,1.22-0.11,1.8-0.31c0.7-0.24,1.32-0.68,1.85-1.28c0.52-0.59,0.93-1.4,1.23-2.39
				c0.29-0.97,0.44-2.19,0.44-3.63c0-0.99-0.12-1.91-0.37-2.71c-0.25-0.81-0.58-1.51-1-2.07c-0.42-0.58-0.92-1.03-1.49-1.34
				C22.66,17.12,22.05,16.96,21.44,16.96z"/>
		</g>
	</g>
	<g>
		<g>
			<path class="st0" d="M54.39,87.77c3.42,0,6.41-2.44,6.41-5.33c0-0.22-0.01-2-0.01-2.04h0h0l0-0.01h0c0-1.49,1.23-2.69,2.75-2.69
				c1.51,0,2.76,1.2,2.75,2.69h0c0,0,0,0,0,0.01v0c0,5.03-5.62,9-11.9,9c-6.59,0-11.94-4.34-11.94-11.15v-9.95
				c0-7.88,5.34-11.42,11.94-11.42c6.59,0,11.61,2.81,11.61,8.19c0,3.91-2.55,5.9-4.25,6.85c-1.91,1.07-4.84,1.84-6.98,2.81
				c-4.44,2.03-6.81,4.09-6.81,6.94C47.96,85.8,50.84,87.77,54.39,87.77z M54.39,58.51c-3.81,0-6.43,3.23-6.43,7.68v9.95
				c1.79-1.02,4.24-2.08,6.25-3.27c3.26-1.93,6.61-4.27,6.61-7.8C60.82,60.96,58.59,58.51,54.39,58.51z"/>
		</g>
	</g>
	<g>
		<g>
			<path class="st0" d="M83.82,58.51c-3.42,0-6.41,2.44-6.41,5.33c0,0.22,0.01,2,0.01,2.04h0h0l0,0.01h0c0,1.49-1.23,2.69-2.75,2.69
				c-1.51,0-2.76-1.2-2.75-2.69h0c0,0,0,0,0-0.01v0c0-5.03,5.62-9,11.9-9c6.59,0,11.94,4.34,11.94,11.15v9.95
				c0,7.88-5.34,11.42-11.94,11.42c-6.59,0-11.61-2.81-11.61-8.19c0-3.91,2.55-5.9,4.25-6.85c1.91-1.07,4.84-1.84,6.98-2.81
				c4.44-2.03,6.81-4.09,6.81-6.94C90.24,60.49,87.37,58.51,83.82,58.51z M83.82,87.77c3.81,0,6.43-3.23,6.43-7.68v-9.95
				C88.45,71.16,86,72.22,84,73.41c-3.26,1.93-6.61,4.27-6.61,7.8C77.39,85.33,79.62,87.77,83.82,87.77z"/>
		</g>
	</g>
	<g>
		<g>
			<path class="st0" d="M89.97,21.09c-3.23,0-6.06,2.3-6.06,5.04c0,0.21,0.01,1.89,0.01,1.93h0h0l0,0.01h0
				c0,1.41-1.16,2.54-2.6,2.54c-1.43,0-2.61-1.14-2.59-2.54h0c0,0,0,0,0-0.01v0c0-4.75,5.31-8.5,11.25-8.5
				c6.23,0,11.28,4.1,11.28,10.53v9.4c0,7.45-5.05,10.79-11.28,10.79c-6.23,0-10.97-2.66-10.97-7.74c0-3.7,2.41-5.58,4.02-6.47
				c1.81-1.01,4.57-1.74,6.59-2.66c4.2-1.92,6.43-3.86,6.43-6.56C96.05,22.95,93.33,21.09,89.97,21.09z M89.97,48.74
				c3.6,0,6.07-3.05,6.07-7.26v-9.4c-1.69,0.97-4.01,1.97-5.9,3.09c-3.08,1.83-6.24,4.03-6.24,7.37C83.9,46.43,86,48.74,89.97,48.74
				z"/>
		</g>
	</g>
	<g>
		<g>
			<path class="st0" d="M126.79,67.34l0,21.42c0,0.35-0.33,0.64-0.73,0.64h-4.04c-0.41,0-0.73-0.29-0.73-0.64l0-23.68
				c0-3.13-2.86-5.76-6.42-5.77l-0.98,0c-3.63-0.06-6.56,2.59-6.56,5.77l0,23.68c0,0.35-0.33,0.64-0.74,0.64h-4.04
				c-0.41,0-0.73-0.29-0.73-0.64l0-21.42c0-5.32,5.34-9.64,11.94-9.64h1.1C121.45,57.7,126.79,62.02,126.79,67.34z"/>
		</g>
	</g>
	<g>
		<circle class="st0" cx="64.59" cy="10.58" r="3.5"/>
	</g>
	<g>
		<path class="st0" d="M66.16,2.76c0-0.87-0.71-1.58-1.58-1.58c-0.87,0-1.58,0.71-1.58,1.58s0.71,1.58,1.58,1.58
			C65.46,4.34,66.16,3.63,66.16,2.76z"/>
	</g>
	<g>
		<path class="st0" d="M60.06,6.5C59.73,5.7,58.8,5.32,58,5.65c-0.8,0.33-1.19,1.26-0.85,2.06c0.33,0.8,1.26,1.19,2.06,0.85
			C60.01,8.23,60.39,7.31,60.06,6.5z"/>
	</g>
	<g>
		<path class="st0" d="M57.56,1.83c-0.22-0.54-0.84-0.8-1.38-0.57c-0.54,0.22-0.8,0.84-0.57,1.38c0.22,0.54,0.84,0.8,1.38,0.57
			C57.53,2.99,57.79,2.37,57.56,1.83z"/>
	</g>
	<g>
		<path class="st0" d="M50.74,14.11c-0.8-0.33-1.73,0.05-2.06,0.85c-0.33,0.8,0.05,1.73,0.85,2.06c0.8,0.33,1.73-0.05,2.06-0.85
			C51.93,15.37,51.55,14.45,50.74,14.11z"/>
	</g>
	<g>
		<path class="st0" d="M45.68,12.58c-0.54-0.22-1.16,0.03-1.38,0.57c-0.22,0.54,0.03,1.16,0.57,1.38c0.54,0.22,1.16-0.03,1.38-0.57
			C46.47,13.42,46.22,12.8,45.68,12.58z"/>
	</g>
	<g>
		<path class="st0" d="M79.63,17.03c0.8-0.33,1.19-1.26,0.85-2.06c-0.33-0.8-1.26-1.19-2.06-0.85c-0.8,0.33-1.19,1.26-0.85,2.06
			C77.91,16.98,78.83,17.36,79.63,17.03z"/>
	</g>
	<g>
		<path class="st0" d="M84.3,14.53c0.54-0.22,0.8-0.84,0.57-1.38c-0.22-0.54-0.84-0.8-1.38-0.57c-0.54,0.22-0.8,0.84-0.57,1.38
			C83.15,14.5,83.76,14.75,84.3,14.53z"/>
	</g>
	<g>
		<path class="st0" d="M72.03,7.71c0.33-0.8-0.05-1.73-0.85-2.06c-0.8-0.33-1.73,0.05-2.06,0.85c-0.33,0.8,0.05,1.73,0.85,2.06
			C70.77,8.9,71.69,8.52,72.03,7.71z"/>
	</g>
	<g>
		<path class="st0" d="M73.56,2.64c0.22-0.54-0.03-1.16-0.57-1.38c-0.54-0.22-1.16,0.03-1.38,0.57c-0.22,0.54,0.03,1.16,0.57,1.38
			C72.72,3.44,73.34,3.18,73.56,2.64z"/>
	</g>
	<g>
		<g>
			<circle class="st0" cx="56.83" cy="13.79" r="3.5"/>
		</g>
		<g>
			<circle class="st0" cx="51.3" cy="8.27" r="1.58"/>
		</g>
	</g>
	<g>
		<g>
			<circle class="st0" cx="72.34" cy="13.79" r="3.5"/>
		</g>
		<g>
			<circle class="st0" cx="77.87" cy="8.27" r="1.58"/>
		</g>
	</g>
	<g>
		<path class="st0" d="M52.52,99.35l-1.65-2.16v2.16h-1.19v-4.9h1.19v2.15l1.63-2.15h1.4l-1.9,2.4l1.97,2.5H52.52z"/>
		<path class="st0" d="M59.14,98.48h-1.83l-0.29,0.87h-1.25l1.77-4.9h1.38l1.77,4.9h-1.26L59.14,98.48z M58.83,97.56l-0.61-1.79
			l-0.6,1.79H58.83z"/>
		<path class="st0" d="M67.16,99.35h-1.19l-2-3.02v3.02h-1.19v-4.9h1.19l2,3.04v-3.04h1.19V99.35z"/>
		<path class="st0" d="M73.94,99.35h-1.19l-2-3.02v3.02h-1.19v-4.9h1.19l2,3.04v-3.04h1.19V99.35z"/>
		<path class="st0" d="M77.52,94.44v2.93c0,0.29,0.07,0.52,0.22,0.68c0.14,0.16,0.36,0.24,0.64,0.24s0.49-0.08,0.64-0.24
			c0.15-0.16,0.22-0.38,0.22-0.68v-2.93h1.19v2.93c0,0.44-0.09,0.81-0.28,1.11c-0.19,0.3-0.44,0.53-0.75,0.68
			c-0.32,0.15-0.66,0.23-1.05,0.23c-0.39,0-0.73-0.08-1.04-0.23c-0.31-0.15-0.55-0.38-0.72-0.68c-0.18-0.31-0.27-0.68-0.27-1.11
			v-2.93H77.52z"/>
		<path class="st0" d="M85.31,99.35l-1.02-1.85H84v1.85h-1.19v-4.9h2c0.39,0,0.72,0.07,0.99,0.2c0.27,0.14,0.48,0.32,0.61,0.55
			c0.14,0.24,0.2,0.5,0.2,0.79c0,0.33-0.09,0.62-0.28,0.87c-0.18,0.26-0.46,0.44-0.81,0.54l1.13,1.94H85.31z M84,96.65h0.74
			c0.22,0,0.38-0.05,0.49-0.16c0.11-0.11,0.16-0.26,0.16-0.45c0-0.19-0.05-0.33-0.16-0.44c-0.11-0.11-0.27-0.16-0.49-0.16H84V96.65z
			"/>
		<path class="st0" d="M12.88,105.65c0.18,0.23,0.27,0.49,0.27,0.77c0,0.25-0.06,0.47-0.19,0.67c-0.13,0.2-0.31,0.35-0.56,0.47
			c-0.24,0.11-0.52,0.17-0.85,0.17H9.62v-4.85h1.85c0.33,0,0.61,0.05,0.85,0.17c0.24,0.11,0.42,0.26,0.54,0.45
			c0.12,0.19,0.18,0.4,0.18,0.63c0,0.28-0.07,0.51-0.22,0.7c-0.15,0.19-0.35,0.32-0.6,0.41C12.48,105.28,12.7,105.42,12.88,105.65z
			 M10.42,104.91h0.98c0.26,0,0.46-0.06,0.61-0.18c0.15-0.12,0.22-0.29,0.22-0.51c0-0.22-0.07-0.39-0.22-0.51
			c-0.15-0.12-0.35-0.18-0.61-0.18h-0.98V104.91z M12.13,106.88c0.15-0.13,0.23-0.31,0.23-0.54c0-0.24-0.08-0.43-0.24-0.57
			c-0.16-0.14-0.38-0.21-0.65-0.21h-1.05v1.51h1.08C11.76,107.08,11.97,107.01,12.13,106.88z"/>
		<path class="st0" d="M19.15,102.87l-1.61,3.09v1.76h-0.8v-1.76l-1.61-3.09h0.89l1.12,2.38l1.12-2.38H19.15z"/>
		<path class="st0" d="M27.35,107.73l-1.88-2.17v2.17h-0.8v-4.85h0.8v2.21l1.89-2.21h1l-2.11,2.43l2.14,2.42H27.35z"/>
		<path class="st0" d="M33.31,107.73l-1.88-2.17v2.17h-0.8v-4.85h0.8v2.21l1.89-2.21h1l-2.11,2.43l2.14,2.42H33.31z"/>
		<path class="st0" d="M43.82,102.87v4.85h-0.8v-2.12h-2.28v2.12h-0.8v-4.85h0.8v2.08h2.28v-2.08H43.82z"/>
		<path class="st0" d="M47.37,107.46c-0.38-0.21-0.68-0.51-0.9-0.89c-0.22-0.38-0.33-0.81-0.33-1.28s0.11-0.9,0.33-1.28
			c0.22-0.38,0.52-0.67,0.9-0.88c0.38-0.21,0.79-0.32,1.25-0.32c0.46,0,0.87,0.11,1.25,0.32c0.38,0.21,0.68,0.51,0.9,0.88
			c0.22,0.38,0.33,0.8,0.33,1.28s-0.11,0.9-0.33,1.28c-0.22,0.38-0.52,0.68-0.9,0.89c-0.38,0.21-0.8,0.32-1.25,0.32
			C48.17,107.78,47.75,107.67,47.37,107.46z M49.48,106.87c0.25-0.15,0.45-0.36,0.59-0.63c0.14-0.27,0.21-0.59,0.21-0.95
			s-0.07-0.67-0.21-0.94c-0.14-0.27-0.34-0.48-0.59-0.62c-0.25-0.14-0.54-0.22-0.86-0.22c-0.32,0-0.61,0.07-0.86,0.22
			c-0.25,0.14-0.45,0.35-0.59,0.62c-0.14,0.27-0.21,0.58-0.21,0.94s0.07,0.67,0.21,0.95c0.14,0.27,0.34,0.48,0.59,0.63
			c0.25,0.15,0.54,0.22,0.86,0.22C48.94,107.09,49.23,107.01,49.48,106.87z"/>
		<path class="st0" d="M56.55,102.87v0.65h-1.29v4.21h-0.8v-4.21h-1.3v-0.65H56.55z"/>
		<path class="st0" d="M59.69,103.52v1.42h1.68v0.65h-1.68v1.49h1.89v0.65h-2.68v-4.86h2.68v0.65H59.69z"/>
		<path class="st0" d="M64.89,107.09h1.64v0.64h-2.44v-4.85h0.8V107.09z"/>
		<path class="st0" d="M69.45,107.61c-0.26-0.11-0.47-0.28-0.61-0.49c-0.15-0.21-0.22-0.45-0.22-0.73h0.85
			c0.02,0.21,0.1,0.38,0.25,0.52c0.15,0.14,0.35,0.2,0.62,0.2c0.27,0,0.49-0.07,0.64-0.2c0.15-0.13,0.23-0.3,0.23-0.51
			c0-0.16-0.05-0.3-0.14-0.4c-0.1-0.1-0.21-0.18-0.36-0.24c-0.14-0.06-0.34-0.12-0.59-0.18c-0.32-0.08-0.57-0.17-0.77-0.25
			c-0.2-0.09-0.37-0.22-0.51-0.4c-0.14-0.18-0.21-0.42-0.21-0.73c0-0.28,0.07-0.52,0.21-0.73c0.14-0.21,0.34-0.37,0.59-0.48
			c0.25-0.11,0.54-0.17,0.87-0.17c0.47,0,0.86,0.12,1.16,0.35c0.3,0.23,0.47,0.56,0.5,0.97h-0.88c-0.01-0.18-0.1-0.33-0.25-0.45
			c-0.15-0.13-0.36-0.19-0.61-0.19c-0.23,0-0.41,0.06-0.56,0.17c-0.14,0.12-0.22,0.28-0.22,0.5c0,0.15,0.05,0.27,0.14,0.37
			c0.09,0.1,0.21,0.17,0.35,0.23c0.14,0.06,0.33,0.12,0.57,0.18c0.32,0.09,0.58,0.18,0.79,0.27c0.2,0.09,0.38,0.22,0.52,0.41
			s0.21,0.43,0.21,0.74c0,0.25-0.07,0.48-0.2,0.7c-0.13,0.22-0.33,0.39-0.58,0.53c-0.25,0.13-0.55,0.2-0.9,0.2
			C70,107.78,69.71,107.72,69.45,107.61z"/>
		<path class="st0" d="M81.59,107.73l-0.6-0.6c-0.23,0.23-0.49,0.41-0.76,0.52c-0.27,0.11-0.58,0.17-0.92,0.17
			c-0.34,0-0.65-0.06-0.91-0.18c-0.27-0.12-0.47-0.29-0.62-0.52c-0.14-0.23-0.22-0.49-0.22-0.79c0-0.34,0.1-0.63,0.29-0.9
			c0.19-0.26,0.48-0.47,0.85-0.62c-0.13-0.16-0.23-0.32-0.29-0.46c-0.05-0.14-0.08-0.3-0.08-0.47c0-0.21,0.05-0.4,0.16-0.57
			c0.11-0.17,0.27-0.3,0.47-0.4c0.21-0.1,0.44-0.15,0.71-0.15c0.27,0,0.51,0.05,0.7,0.16c0.19,0.11,0.34,0.25,0.43,0.43
			c0.1,0.18,0.13,0.38,0.12,0.61h-0.8c0-0.17-0.04-0.31-0.13-0.4c-0.09-0.1-0.21-0.14-0.36-0.14c-0.15,0-0.28,0.05-0.37,0.14
			c-0.1,0.09-0.14,0.2-0.14,0.33c0,0.13,0.04,0.25,0.11,0.37c0.07,0.12,0.2,0.28,0.38,0.48l1.29,1.28l0.5-0.82h0.86l-0.63,1.08
			l-0.17,0.29l1.18,1.17H81.59z M80.46,106.6l-1.29-1.29c-0.55,0.22-0.82,0.55-0.82,0.99c0,0.24,0.09,0.44,0.27,0.6
			c0.18,0.16,0.4,0.24,0.68,0.24C79.74,107.14,80.13,106.96,80.46,106.6z"/>
		<path class="st0" d="M90.56,107.73l-1.12-1.94h-0.61v1.94h-0.8v-4.85h1.68c0.37,0,0.69,0.06,0.95,0.2
			c0.26,0.13,0.45,0.3,0.58,0.52c0.13,0.22,0.19,0.46,0.19,0.73c0,0.32-0.09,0.6-0.28,0.86c-0.18,0.26-0.47,0.43-0.85,0.53l1.2,2.01
			H90.56z M88.84,105.15h0.88c0.3,0,0.52-0.08,0.67-0.22c0.15-0.15,0.23-0.35,0.23-0.6s-0.08-0.45-0.22-0.59
			c-0.15-0.14-0.37-0.21-0.68-0.21h-0.88V105.15z"/>
		<path class="st0" d="M94.79,103.52v1.42h1.68v0.65h-1.68v1.49h1.89v0.65h-2.68v-4.86h2.68v0.65H94.79z"/>
		<path class="st0" d="M99.91,107.61c-0.26-0.11-0.47-0.28-0.61-0.49c-0.15-0.21-0.22-0.45-0.22-0.73h0.85
			c0.02,0.21,0.1,0.38,0.25,0.52c0.15,0.14,0.35,0.2,0.62,0.2c0.27,0,0.49-0.07,0.64-0.2c0.15-0.13,0.23-0.3,0.23-0.51
			c0-0.16-0.05-0.3-0.14-0.4c-0.1-0.1-0.21-0.18-0.36-0.24c-0.14-0.06-0.34-0.12-0.59-0.18c-0.32-0.08-0.57-0.17-0.77-0.25
			c-0.2-0.09-0.37-0.22-0.51-0.4c-0.14-0.18-0.21-0.42-0.21-0.73c0-0.28,0.07-0.52,0.21-0.73c0.14-0.21,0.34-0.37,0.59-0.48
			c0.25-0.11,0.54-0.17,0.87-0.17c0.47,0,0.86,0.12,1.16,0.35c0.3,0.23,0.47,0.56,0.5,0.97h-0.88c-0.01-0.18-0.1-0.33-0.25-0.45
			c-0.15-0.13-0.36-0.19-0.61-0.19c-0.23,0-0.41,0.06-0.56,0.17c-0.14,0.12-0.22,0.28-0.22,0.5c0,0.15,0.05,0.27,0.14,0.37
			c0.09,0.1,0.21,0.17,0.35,0.23s0.33,0.12,0.57,0.18c0.32,0.09,0.58,0.18,0.79,0.27c0.2,0.09,0.38,0.22,0.52,0.41
			s0.21,0.43,0.21,0.74c0,0.25-0.07,0.48-0.2,0.7c-0.13,0.22-0.33,0.39-0.58,0.53c-0.25,0.13-0.55,0.2-0.9,0.2
			C100.46,107.78,100.17,107.72,99.91,107.61z"/>
		<path class="st0" d="M105.91,107.46c-0.38-0.21-0.68-0.51-0.9-0.89c-0.22-0.38-0.33-0.81-0.33-1.28s0.11-0.9,0.33-1.28
			c0.22-0.38,0.52-0.67,0.9-0.88c0.38-0.21,0.79-0.32,1.25-0.32c0.46,0,0.87,0.11,1.25,0.32c0.38,0.21,0.68,0.51,0.9,0.88
			c0.22,0.38,0.33,0.8,0.33,1.28s-0.11,0.9-0.33,1.28c-0.22,0.38-0.52,0.68-0.9,0.89c-0.38,0.21-0.8,0.32-1.25,0.32
			C106.71,107.78,106.29,107.67,105.91,107.46z M108.02,106.87c0.25-0.15,0.45-0.36,0.59-0.63c0.14-0.27,0.21-0.59,0.21-0.95
			s-0.07-0.67-0.21-0.94c-0.14-0.27-0.34-0.48-0.59-0.62c-0.25-0.14-0.54-0.22-0.86-0.22c-0.32,0-0.61,0.07-0.86,0.22
			c-0.25,0.14-0.45,0.35-0.59,0.62c-0.14,0.27-0.21,0.58-0.21,0.94s0.07,0.67,0.21,0.95c0.14,0.27,0.34,0.48,0.59,0.63
			c0.25,0.15,0.54,0.22,0.86,0.22C107.48,107.09,107.77,107.01,108.02,106.87z"/>
		<path class="st0" d="M114.48,107.73l-1.12-1.94h-0.61v1.94h-0.8v-4.85h1.68c0.37,0,0.69,0.06,0.95,0.2
			c0.26,0.13,0.45,0.3,0.58,0.52c0.13,0.22,0.19,0.46,0.19,0.73c0,0.32-0.09,0.6-0.28,0.86c-0.18,0.26-0.47,0.43-0.85,0.53l1.2,2.01
			H114.48z M112.75,105.15h0.88c0.3,0,0.52-0.08,0.67-0.22c0.15-0.15,0.23-0.35,0.23-0.6s-0.08-0.45-0.22-0.59
			c-0.15-0.14-0.37-0.21-0.68-0.21h-0.88V105.15z"/>
		<path class="st0" d="M121.05,102.87v0.65h-1.29v4.21h-0.8v-4.21h-1.3v-0.65H121.05z"/>
		<path class="st0" d="M124.1,107.61c-0.26-0.11-0.47-0.28-0.61-0.49c-0.15-0.21-0.22-0.45-0.22-0.73h0.85
			c0.02,0.21,0.1,0.38,0.25,0.52c0.15,0.14,0.35,0.2,0.62,0.2c0.27,0,0.49-0.07,0.64-0.2c0.15-0.13,0.23-0.3,0.23-0.51
			c0-0.16-0.05-0.3-0.14-0.4c-0.1-0.1-0.21-0.18-0.36-0.24c-0.14-0.06-0.34-0.12-0.59-0.18c-0.32-0.08-0.57-0.17-0.77-0.25
			c-0.2-0.09-0.37-0.22-0.51-0.4c-0.14-0.18-0.21-0.42-0.21-0.73c0-0.28,0.07-0.52,0.21-0.73c0.14-0.21,0.34-0.37,0.59-0.48
			c0.25-0.11,0.54-0.17,0.87-0.17c0.47,0,0.86,0.12,1.16,0.35c0.3,0.23,0.47,0.56,0.5,0.97h-0.88c-0.01-0.18-0.1-0.33-0.25-0.45
			c-0.15-0.13-0.36-0.19-0.61-0.19c-0.23,0-0.41,0.06-0.56,0.17c-0.14,0.12-0.22,0.28-0.22,0.5c0,0.15,0.05,0.27,0.14,0.37
			s0.21,0.17,0.35,0.23s0.33,0.12,0.57,0.18c0.32,0.09,0.58,0.18,0.79,0.27c0.2,0.09,0.38,0.22,0.52,0.41
			c0.14,0.18,0.21,0.43,0.21,0.74c0,0.25-0.07,0.48-0.2,0.7c-0.13,0.22-0.33,0.39-0.58,0.53c-0.25,0.13-0.55,0.2-0.9,0.2
			C124.66,107.78,124.37,107.72,124.1,107.61z"/>
	</g>
</g>
</svg>
